<mxfile host="www.draw.io" modified="2019-11-13T14:19:48.010Z" agent="Mozilla/5.0 (Windows NT 10.0; Win64; x64; rv:70.0) Gecko/20100101 Firefox/70.0" etag="s35GNvnDTbXuKRU4ZlVU" version="12.2.4" type="github" pages="1">
  <diagram id="eKT6tdQYMb_ygVxlroEm" name="Page-1">
    <mxGraphModel dx="1264" dy="539" grid="1" gridSize="10" guides="1" tooltips="1" connect="1" arrows="1" fold="1" page="1" pageScale="1" pageWidth="1169" pageHeight="827" math="0" shadow="0">
      <root>
        <mxCell id="0"/>
        <mxCell id="1" parent="0"/>
        <mxCell id="AWoNhY88ZsLt_aYiDakC-1" value="" style="rounded=0;whiteSpace=wrap;html=1;" parent="1" vertex="1">
          <mxGeometry x="40" y="40" width="215.99999999999997" height="519.9999999999999" as="geometry"/>
        </mxCell>
        <mxCell id="AWoNhY88ZsLt_aYiDakC-3" value="" style="rounded=0;whiteSpace=wrap;html=1;" parent="1" vertex="1">
          <mxGeometry x="256" y="40" width="216" height="260" as="geometry"/>
        </mxCell>
        <mxCell id="AWoNhY88ZsLt_aYiDakC-4" value="" style="rounded=0;whiteSpace=wrap;html=1;" parent="1" vertex="1">
          <mxGeometry x="471.99999999999994" y="40" width="215.99999999999997" height="519.9999999999999" as="geometry"/>
        </mxCell>
        <mxCell id="AWoNhY88ZsLt_aYiDakC-5" value="" style="rounded=0;whiteSpace=wrap;html=1;" parent="1" vertex="1">
          <mxGeometry x="688" y="40" width="216" height="260" as="geometry"/>
        </mxCell>
        <mxCell id="AWoNhY88ZsLt_aYiDakC-7" value="" style="rounded=0;whiteSpace=wrap;html=1;" parent="1" vertex="1">
          <mxGeometry x="903.9999999999999" y="40" width="215.99999999999997" height="519.9999999999999" as="geometry"/>
        </mxCell>
        <mxCell id="AWoNhY88ZsLt_aYiDakC-9" value="" style="rounded=0;whiteSpace=wrap;html=1;" parent="1" vertex="1">
          <mxGeometry x="40" y="560" width="540" height="240" as="geometry"/>
        </mxCell>
        <mxCell id="AWoNhY88ZsLt_aYiDakC-10" value="" style="rounded=0;whiteSpace=wrap;html=1;" parent="1" vertex="1">
          <mxGeometry x="580" y="560" width="540" height="240" as="geometry"/>
        </mxCell>
        <mxCell id="AWoNhY88ZsLt_aYiDakC-12" value="" style="rounded=0;whiteSpace=wrap;html=1;" parent="1" vertex="1">
          <mxGeometry x="256" y="300" width="216" height="260" as="geometry"/>
        </mxCell>
        <mxCell id="AWoNhY88ZsLt_aYiDakC-13" value="" style="rounded=0;whiteSpace=wrap;html=1;" parent="1" vertex="1">
          <mxGeometry x="688" y="300" width="216" height="260" as="geometry"/>
        </mxCell>
        <mxCell id="AWoNhY88ZsLt_aYiDakC-14" value="Partenaires clés" style="text;html=1;strokeColor=none;fillColor=none;align=left;verticalAlign=middle;whiteSpace=wrap;rounded=0;fontSize=19;horizontal=1;spacing=2;fontFamily=Helvetica;fontStyle=2" parent="1" vertex="1">
          <mxGeometry x="50" y="50" width="200" height="30" as="geometry"/>
        </mxCell>
        <mxCell id="AWoNhY88ZsLt_aYiDakC-15" value="Ressources clés" style="text;html=1;strokeColor=none;fillColor=none;align=left;verticalAlign=middle;whiteSpace=wrap;rounded=0;fontSize=20;horizontal=1;spacing=2;fontFamily=Helvetica;fontStyle=2" parent="1" vertex="1">
          <mxGeometry x="264" y="310" width="200" height="30" as="geometry"/>
        </mxCell>
        <mxCell id="AWoNhY88ZsLt_aYiDakC-16" value="Proposition de valeur" style="text;html=1;strokeColor=none;fillColor=none;align=left;verticalAlign=middle;whiteSpace=wrap;rounded=0;fontSize=19;horizontal=1;spacing=2;fontFamily=Helvetica;fontStyle=2" parent="1" vertex="1">
          <mxGeometry x="480" y="50" width="200" height="30" as="geometry"/>
        </mxCell>
        <mxCell id="AWoNhY88ZsLt_aYiDakC-17" value="Sources de revenus" style="text;html=1;strokeColor=none;fillColor=none;align=left;verticalAlign=middle;whiteSpace=wrap;rounded=0;fontSize=19;horizontal=1;spacing=2;fontFamily=Helvetica;fontStyle=2" parent="1" vertex="1">
          <mxGeometry x="588" y="570" width="522" height="30" as="geometry"/>
        </mxCell>
        <mxCell id="AWoNhY88ZsLt_aYiDakC-18" value="Structure des coûts" style="text;html=1;strokeColor=none;fillColor=none;align=left;verticalAlign=middle;whiteSpace=wrap;rounded=0;fontSize=19;horizontal=1;spacing=2;fontFamily=Helvetica;fontStyle=2" parent="1" vertex="1">
          <mxGeometry x="49" y="570" width="522" height="30" as="geometry"/>
        </mxCell>
        <mxCell id="AWoNhY88ZsLt_aYiDakC-19" value="Activités clés" style="text;html=1;strokeColor=none;fillColor=none;align=left;verticalAlign=middle;whiteSpace=wrap;rounded=0;fontSize=19;horizontal=1;spacing=2;fontFamily=Helvetica;fontStyle=2" parent="1" vertex="1">
          <mxGeometry x="261" y="50" width="200" height="30" as="geometry"/>
        </mxCell>
        <mxCell id="zTbAilV8LbICH3tXDX_m-5" value="Relations client" style="text;html=1;strokeColor=none;fillColor=none;align=left;verticalAlign=middle;whiteSpace=wrap;rounded=0;fontSize=19;horizontal=1;spacing=2;fontFamily=Helvetica;fontStyle=2" parent="1" vertex="1">
          <mxGeometry x="696" y="50" width="200" height="30" as="geometry"/>
        </mxCell>
        <mxCell id="AWoNhY88ZsLt_aYiDakC-21" value="Segments de clientèles" style="text;html=1;strokeColor=none;fillColor=none;align=left;verticalAlign=middle;whiteSpace=wrap;rounded=0;fontSize=19;horizontal=1;spacing=2;fontFamily=Helvetica;fontStyle=2" parent="1" vertex="1">
          <mxGeometry x="912" y="50" width="200" height="30" as="geometry"/>
        </mxCell>
        <mxCell id="AWoNhY88ZsLt_aYiDakC-22" value="Canaux de distribution" style="text;html=1;strokeColor=none;fillColor=none;align=left;verticalAlign=middle;whiteSpace=wrap;rounded=0;fontSize=20;horizontal=1;spacing=2;fontFamily=Helvetica;fontStyle=2" parent="1" vertex="1">
          <mxGeometry x="696" y="310" width="204" height="30" as="geometry"/>
        </mxCell>
        <mxCell id="AWoNhY88ZsLt_aYiDakC-24" value="&lt;div&gt;* Contributeurs &lt;b&gt;OpenStreetMap&lt;/b&gt;&lt;/div&gt;&lt;div&gt;* Fournisseur de &lt;b&gt;cartes électroniques&lt;/b&gt; (OBD, Bluetooth, ordinateur ou mini-pc)&lt;br&gt;&lt;/div&gt;&lt;div&gt;* &lt;b&gt;Fabricants automobile&lt;/b&gt; (si intégration direct)&lt;br&gt;&lt;/div&gt;" style="text;html=1;strokeColor=none;fillColor=none;spacing=2;spacingTop=-3;whiteSpace=wrap;overflow=hidden;rounded=0;fontFamily=Helvetica;fontSize=13;align=left;" parent="1" vertex="1">
          <mxGeometry x="49" y="80" width="201" height="470" as="geometry"/>
        </mxCell>
        <mxCell id="AWoNhY88ZsLt_aYiDakC-25" value="&lt;span&gt;Système de &lt;b&gt;localisation&lt;/b&gt; &lt;b&gt;autonome&lt;/b&gt;, &lt;b&gt;hors ligne&lt;/b&gt; et &lt;b&gt;transparent&lt;/b&gt; en cas de défaillance du GNSS.&lt;/span&gt;&lt;br&gt;&lt;div&gt;&lt;br&gt;&lt;/div&gt;&lt;div&gt;Les capteurs déjà présents dans la voiture sont utilisés et donc il est possible de proposer un &lt;b&gt;boîtier à coût réduit&lt;/b&gt;. Ce boîtier se connecte au port OBD du véhicule.&lt;br&gt; &lt;/div&gt;" style="text;html=1;strokeColor=none;fillColor=none;spacing=2;spacingTop=-3;whiteSpace=wrap;overflow=hidden;rounded=0;fontFamily=Helvetica;fontSize=13;align=left;" parent="1" vertex="1">
          <mxGeometry x="480" y="80" width="201" height="470" as="geometry"/>
        </mxCell>
        <mxCell id="AWoNhY88ZsLt_aYiDakC-26" value="&lt;div&gt;La clientèle de RootMap représente tout client utilisant un véhicule routier.&lt;/div&gt;&lt;div&gt;&lt;br&gt;&lt;/div&gt;&lt;div&gt;&lt;b&gt;* Voitures&lt;/b&gt;&lt;/div&gt;&lt;div&gt;&lt;b&gt;* Camions&lt;/b&gt;&lt;/div&gt;&lt;div&gt;&lt;b&gt;* Motos&lt;/b&gt;&lt;/div&gt;&lt;div&gt;&lt;b&gt;* Véhicules Autonomes&lt;/b&gt;&lt;/div&gt;&lt;div&gt;&lt;b&gt;* Bus&lt;/b&gt;&lt;/div&gt;&lt;div&gt;&lt;b&gt;* Service publics (taxis, secours, ...)&lt;/b&gt;&lt;/div&gt;" style="text;html=1;strokeColor=none;fillColor=none;spacing=2;spacingTop=-3;whiteSpace=wrap;overflow=hidden;rounded=0;fontFamily=Helvetica;fontSize=13;align=left;" parent="1" vertex="1">
          <mxGeometry x="911" y="80" width="201" height="470" as="geometry"/>
        </mxCell>
        <mxCell id="AWoNhY88ZsLt_aYiDakC-27" value="&lt;div&gt;* &lt;b&gt;R&amp;amp;D&lt;/b&gt; de l&#39;algorithme de matching&lt;/div&gt;&lt;div&gt;* Maintien des &lt;b&gt;données à jour&lt;/b&gt;&lt;/div&gt;&lt;div&gt;&lt;br&gt;&lt;/div&gt;&lt;div&gt;* Marketing&lt;/div&gt;&lt;div&gt;* Démarchage des points de vente&lt;/div&gt;&lt;div&gt;* Démarchage des constructeurs auto&lt;br&gt;&lt;/div&gt;" style="text;html=1;strokeColor=none;fillColor=none;spacing=2;spacingTop=-3;whiteSpace=wrap;overflow=hidden;rounded=0;fontFamily=Helvetica;fontSize=13;align=left;" parent="1" vertex="1">
          <mxGeometry x="265" y="80" width="201" height="210" as="geometry"/>
        </mxCell>
        <mxCell id="AWoNhY88ZsLt_aYiDakC-28" value="&lt;div&gt;* &lt;b&gt;Ressources financières&lt;/b&gt; importantes pour le R&amp;amp;D&lt;/div&gt;&lt;div&gt;* &lt;b&gt;Cartes électroniques&lt;/b&gt; de qualité&lt;/div&gt;&lt;div&gt;* &lt;b&gt;Stockage&lt;/b&gt; de données&lt;/div&gt;&lt;div&gt;* &lt;b&gt;Serveurs&lt;/b&gt; de mise à jour&lt;/div&gt;&lt;div&gt;* &lt;b&gt;Données cartographiques&lt;/b&gt;&lt;/div&gt;" style="text;html=1;strokeColor=none;fillColor=none;spacing=2;spacingTop=-3;whiteSpace=wrap;overflow=hidden;rounded=0;fontFamily=Helvetica;fontSize=13;align=left;" parent="1" vertex="1">
          <mxGeometry x="264" y="340" width="201" height="210" as="geometry"/>
        </mxCell>
        <mxCell id="AWoNhY88ZsLt_aYiDakC-29" value="&lt;div&gt;Achat &lt;b&gt;en magasin&lt;/b&gt; spécialisé automobile, petits électroniques, grandes surfaces&lt;br&gt;&lt;/div&gt;&lt;div&gt;&lt;br&gt;&lt;/div&gt;&lt;div&gt;Possible &lt;b&gt;intégration direct&lt;/b&gt; dans les véhicules.&lt;/div&gt;&lt;div&gt;&lt;br&gt;&lt;/div&gt;&lt;div&gt;Vente &lt;b&gt;en ligne&lt;/b&gt;&lt;br&gt;&lt;/div&gt;" style="text;html=1;strokeColor=none;fillColor=none;spacing=2;spacingTop=-3;whiteSpace=wrap;overflow=hidden;rounded=0;fontFamily=Helvetica;fontSize=13;align=left;" parent="1" vertex="1">
          <mxGeometry x="696" y="340" width="201" height="210" as="geometry"/>
        </mxCell>
        <mxCell id="AWoNhY88ZsLt_aYiDakC-30" value="&lt;div&gt;Proposer des &lt;b&gt;mise à jour&lt;/b&gt; du boîtier régulières.&lt;/div&gt;&lt;div&gt;Proposer un &lt;b&gt;support clientèle&lt;/b&gt; en ligne ou hors-ligne (Documentation)&lt;/div&gt;" style="text;html=1;strokeColor=none;fillColor=none;spacing=2;spacingTop=-3;whiteSpace=wrap;overflow=hidden;rounded=0;fontFamily=Helvetica;fontSize=13;align=left;" parent="1" vertex="1">
          <mxGeometry x="696" y="81" width="201" height="210" as="geometry"/>
        </mxCell>
        <mxCell id="AWoNhY88ZsLt_aYiDakC-31" value="&lt;div&gt;La &lt;b&gt;R&amp;amp;D Initial&lt;/b&gt; peut représenter une dépense importante sans revenu durant la phase de développement.&lt;/div&gt;&lt;div&gt;Estimation de 3 ingénieurs nécessaires sur 2 mois de R&amp;amp;D&lt;br&gt;&lt;/div&gt;&lt;div&gt;&lt;br&gt;&lt;/div&gt;&lt;div&gt;Les &lt;b&gt;serveurs de mise à jours&lt;/b&gt; peuvent représenter un coût important pour supporter la charge de téléchargement des mise à jours lors de la publication de nouvelles mise à jour. Cout plus important (x2) durant une courte periode.&lt;br&gt;&lt;/div&gt;" style="text;html=1;strokeColor=none;fillColor=none;spacing=2;spacingTop=-3;whiteSpace=wrap;overflow=hidden;rounded=0;fontFamily=Helvetica;fontSize=13;align=left;" parent="1" vertex="1">
          <mxGeometry x="49" y="600" width="251" height="190" as="geometry"/>
        </mxCell>
        <mxCell id="AWoNhY88ZsLt_aYiDakC-33" value="&lt;div&gt;&lt;b&gt;Vente&lt;/b&gt; des boîtiers à 55€ par unité dont 5€ de marge.&lt;/div&gt;&lt;div&gt;&lt;br&gt;&lt;/div&gt;&lt;div&gt;&lt;b&gt;Partenariats&lt;/b&gt; avec les fabricants auto.&lt;/div&gt;&lt;div&gt;&lt;br&gt;&lt;/div&gt;&lt;div&gt;Les clients utilisent des solutions gratuites (Google Maps, Here WeGo, ...)&lt;/div&gt;&lt;div&gt;&lt;br&gt;&lt;/div&gt;&lt;div&gt;Les boitiers GPS coûtent entre 50€ et 350€&lt;br&gt;&lt;/div&gt;" style="text;html=1;strokeColor=none;fillColor=none;spacing=2;spacingTop=-3;whiteSpace=wrap;overflow=hidden;rounded=0;fontFamily=Helvetica;fontSize=13;align=left;" parent="1" vertex="1">
          <mxGeometry x="588" y="600" width="251" height="190" as="geometry"/>
        </mxCell>
        <mxCell id="AWoNhY88ZsLt_aYiDakC-36" value="RootMap" style="text;html=1;strokeColor=none;fillColor=none;align=left;verticalAlign=middle;whiteSpace=wrap;rounded=0;fontSize=19;horizontal=1;spacing=2;fontFamily=Helvetica;fontStyle=2" parent="1" vertex="1">
          <mxGeometry x="40" y="10" width="200" height="30" as="geometry"/>
        </mxCell>
        <mxCell id="AWoNhY88ZsLt_aYiDakC-37" value="Primary Business Plan Canvas" style="text;html=1;strokeColor=none;fillColor=none;align=right;verticalAlign=middle;whiteSpace=wrap;rounded=0;fontSize=19;horizontal=1;spacing=2;fontFamily=Helvetica;fontStyle=1;fontColor=#474747;" parent="1" vertex="1">
          <mxGeometry x="770" y="10" width="350" height="30" as="geometry"/>
        </mxCell>
        <mxCell id="AWoNhY88ZsLt_aYiDakC-38" value="13 Novembre 2019" style="text;html=1;strokeColor=none;fillColor=none;align=center;verticalAlign=middle;whiteSpace=wrap;rounded=0;fontSize=13;horizontal=1;spacing=2;fontFamily=Helvetica;fontStyle=0" parent="1" vertex="1">
          <mxGeometry x="481" y="10" width="206" height="30" as="geometry"/>
        </mxCell>
        <mxCell id="wxidHyfhj4Skb0KRaWUA-1" value="&lt;div&gt;Le produit en lui même :&lt;/div&gt;&lt;div&gt;* Connecteurs OBD : 10 €&lt;/div&gt;&lt;div&gt;* Composants éléctroniques : 35 €&lt;/div&gt;&lt;div&gt;* Composants éléctroniques et carte : 5€&lt;/div&gt;&lt;div&gt;* Marge de 5€&lt;br&gt;&lt;/div&gt;&lt;div&gt;* Total : 55€ le boitier&lt;/div&gt;&lt;div&gt;&lt;br&gt;&lt;/div&gt;&lt;div&gt;Serveurs ;&lt;/div&gt;&lt;div&gt;* Serveurs de mise à jour : 50 €/mois&lt;/div&gt;&lt;div&gt;&lt;br&gt;&lt;/div&gt;&lt;div&gt;Salaires :&lt;/div&gt;&lt;div&gt;* 2500€/Mois/Ingénieur&lt;br&gt;&lt;/div&gt;&lt;div&gt;&lt;br&gt;&lt;/div&gt;" style="text;html=1;strokeColor=none;fillColor=none;spacing=2;spacingTop=-3;whiteSpace=wrap;overflow=hidden;rounded=0;fontFamily=Helvetica;fontSize=13;align=left;" parent="1" vertex="1">
          <mxGeometry x="314.5" y="600" width="251" height="190" as="geometry"/>
        </mxCell>
      </root>
    </mxGraphModel>
  </diagram>
</mxfile>
